<svg width="36" height="36" viewBox="0 0 36 36" fill="none" xmlns="http://www.w3.org/2000/svg">
<g filter="url(#filter0_b_10_3055)">
<path d="M0 18C0 8.05888 8.05888 0 18 0C27.9411 0 36 8.05888 36 18C36 27.9411 27.9411 36 18 36C8.05888 36 0 27.9411 0 18Z" fill="#00BCE6" fill-opacity="0.1"/>
<path d="M28.2929 8.93239C28.9229 9.56236 30 9.11619 30 8.22529V4C30 3.44772 29.5523 3 29 3H26.5C25.9477 3 25.5 3.44772 25.5 4V5.72529C25.5 5.9905 25.6054 6.24486 25.7929 6.43239L28.2929 8.93239ZM33.5858 19.5C34.4767 19.5 34.9229 18.4229 34.2929 17.7929L18.7071 2.20711C18.3166 1.81658 17.6834 1.81658 17.2929 2.20711L1.7071 17.7929C1.07714 18.4229 1.52331 19.5 2.41421 19.5H3.5C4.05228 19.5 4.5 19.9477 4.5 20.5V33.5C4.5 34.0523 4.94772 34.5 5.5 34.5H14C14.5523 34.5 15 34.0523 15 33.5V28C15 27.4477 15.4477 27 16 27H20C20.5523 27 21 27.4477 21 28V33.5C21 34.0523 21.4477 34.5 22 34.5H30.5C31.0523 34.5 31.5 34.0523 31.5 33.5V20.5C31.5 19.9477 31.9477 19.5 32.5 19.5H33.5858ZM28.5 30.5C28.5 31.0523 28.0523 31.5 27.5 31.5H25C24.4477 31.5 24 31.0523 24 30.5V25C24 24.4477 23.5523 24 23 24H13C12.4477 24 12 24.4477 12 25V30.5C12 31.0523 11.5523 31.5 11 31.5H8.5C7.94772 31.5 7.5 31.0523 7.5 30.5V16.5279C7.5 16.2605 7.6071 16.0042 7.79738 15.8164L17.2934 6.43969C17.6845 6.05358 18.3138 6.05534 18.7026 6.44364L28.2066 15.934C28.3944 16.1216 28.5 16.3762 28.5 16.6416V30.5Z" fill="#00BCE6"/>
</g>
<defs>
<filter id="filter0_b_10_3055" x="-4" y="-4" width="44" height="44" filterUnits="userSpaceOnUse" color-interpolation-filters="sRGB">
<feFlood flood-opacity="0" result="BackgroundImageFix"/>
<feGaussianBlur in="BackgroundImage" stdDeviation="2"/>
<feComposite in2="SourceAlpha" operator="in" result="effect1_backgroundBlur_10_3055"/>
<feBlend mode="normal" in="SourceGraphic" in2="effect1_backgroundBlur_10_3055" result="shape"/>
</filter>
</defs>
</svg>
