<svg width="24" height="25" viewBox="0 0 24 25" fill="none" xmlns="http://www.w3.org/2000/svg">
    <g filter="url(#yagmv1snpa)">
        <path d="M0 13C0 6.373 5.373 1 12 1s12 5.373 12 12-5.373 12-12 12S0 19.627 0 13z" fill="#00E6E6" fill-opacity=".1"/>
        <path fill-rule="evenodd" clip-rule="evenodd" d="M15.993 15.001h2v2h1v-2h2v-1h-2v-2h-1v2h-2v1zm4.585 8.604c-.637-1.059-1.569-2.625-2.154-3.607a5.422 5.422 0 0 1-.229-.008c-.65-.035-1.287.414-1.313 1.065l-.08 1.969a1 1 0 0 1-1 .959H8.256a1 1 0 0 1-1-.955l-.097-2.146c-.044-.972-1.303-1.31-1.82-.486-.736 1.17-1.526 2.45-1.947 3.213-.421.769-1.618.265-1.367-.548.608-1.952 1.948-6.316 2.669-8.859.2-.704.851-1.195 1.584-1.195h7.991c-.167.47-.274.968-.274 1.494a4.505 4.505 0 0 0 4.502 4.501c.763 0 1.47-.209 2.1-.544.595 2.018 1.201 4.064 1.352 4.596.228.828-.89 1.348-1.371.551zm-2.081-12.604a3.502 3.502 0 0 1 3.502 3.5 3.502 3.502 0 0 1-7.004 0c0-1.933 1.569-3.5 3.502-3.5zm3.219 7.714-.253-.853c.935-.825 1.537-2.018 1.537-3.361 0-2.484-2.018-4.5-4.503-4.5a4.497 4.497 0 0 0-3.744 2.005H6.278a2.656 2.656 0 0 0-2.546 1.924c-.719 2.533-2.055 6.886-2.662 8.834a1.61 1.61 0 0 0-.07.485c0 .43.307 1.739 1.727 1.739.623 0 1.234-.338 1.542-.896.504-.914 1.29-2.189 1.891-3.144l.14 3.08a1 1 0 0 0 .999.955h9.463a1 1 0 0 0 1-.959l.122-2.978a853.71 853.71 0 0 0 1.836 3.072c.326.544.911.882 1.524.882.634 0 1.735-.497 1.735-1.741 0-.154-.021-.313-.065-.474a402.012 402.012 0 0 0-1.198-4.07zM12.015 1a5.028 5.028 0 0 0-5.027 5.024 5.029 5.029 0 0 0 5.027 5.025 5.03 5.03 0 0 0 5.028-5.025A5.028 5.028 0 0 0 12.015 1zm0 1a4.03 4.03 0 0 1 4.027 4.024 4.031 4.031 0 0 1-4.027 4.025 4.03 4.03 0 0 1-4.026-4.025A4.03 4.03 0 0 1 12.015 2z" fill="#53525E"/>
    </g>
    <defs>
        <filter id="yagmv1snpa" x="-4" y="-4" width="32" height="33" filterUnits="userSpaceOnUse" color-interpolation-filters="sRGB">
            <feFlood flood-opacity="0" result="BackgroundImageFix"/>
            <feGaussianBlur in="BackgroundImage" stdDeviation="2"/>
            <feComposite in2="SourceAlpha" operator="in" result="effect1_backgroundBlur_6_2682"/>
            <feBlend in="SourceGraphic" in2="effect1_backgroundBlur_6_2682" result="shape"/>
        </filter>
    </defs>
</svg>
