<svg width="24" height="24" viewBox="0 0 24 24" fill="none" xmlns="http://www.w3.org/2000/svg">
    <g filter="url(#egqxa6jj3a)">
        <path d="M0 12C0 5.373 5.373 0 12 0s12 5.373 12 12-5.373 12-12 12S0 18.627 0 12z" fill="#00BCE6" fill-opacity=".1"/>
        <path fill-rule="evenodd" clip-rule="evenodd" d="M16 6a1 1 0 0 0 1 1h6a1 1 0 0 1 1 1v15a1 1 0 0 1-1 1H1a1 1 0 0 1-1-1V1a1 1 0 0 1 1-1h14a1 1 0 0 1 1 1v5zM7 20a1 1 0 1 0-2 0v3h2v-3zm4 0a1 1 0 1 0-2 0v3h2v-3zm7 0a1 1 0 1 0-2 0v3h2v-3zm4-10a1 1 0 0 0-1-1h-4a1 1 0 0 0-1 1v6a1 1 0 0 0 1 1h2a1 1 0 0 1 1 1v3a1 1 0 1 0 2 0V10zm-8-7a1 1 0 0 0-1-1H3a1 1 0 0 0-1 1v18.5a.5.5 0 0 0 1 0V18a1 1 0 0 1 1-1h8a1 1 0 0 1 1 1v3.5a.5.5 0 0 0 1 0V3zM6 14a1 1 0 1 1-2 0 1 1 0 0 1 2 0zm3 0a1 1 0 1 1-2 0 1 1 0 0 1 2 0zm3 0a1 1 0 1 1-2 0 1 1 0 0 1 2 0zm7-1a1 1 0 1 1 0 2 1 1 0 0 1 0-2zM6 11a1 1 0 1 1-2 0 1 1 0 0 1 2 0zm3 0a1 1 0 1 1-2 0 1 1 0 0 1 2 0zm3 0a1 1 0 1 1-2 0 1 1 0 0 1 2 0zm6 0a1 1 0 1 1 2 0 1 1 0 0 1-2 0zM6 8a1 1 0 1 1-2 0 1 1 0 0 1 2 0zm3 0a1 1 0 1 1-2 0 1 1 0 0 1 2 0zm3 0a1 1 0 1 1-2 0 1 1 0 0 1 2 0zM6 5a1 1 0 1 1-2 0 1 1 0 0 1 2 0zm3 0a1 1 0 1 1-2 0 1 1 0 0 1 2 0zm3 0a1 1 0 1 1-2 0 1 1 0 0 1 2 0z" fill="#53525E"/>
    </g>
    <defs>
        <filter id="egqxa6jj3a" x="-4" y="-4" width="32" height="32" filterUnits="userSpaceOnUse" color-interpolation-filters="sRGB">
            <feFlood flood-opacity="0" result="BackgroundImageFix"/>
            <feGaussianBlur in="BackgroundImage" stdDeviation="2"/>
            <feComposite in2="SourceAlpha" operator="in" result="effect1_backgroundBlur_7_3757"/>
            <feBlend in="SourceGraphic" in2="effect1_backgroundBlur_7_3757" result="shape"/>
        </filter>
    </defs>
</svg>
