<svg width="125" height="32" viewBox="0 0 125 32" fill="none" xmlns="http://www.w3.org/2000/svg">
    <path d="M4.44831 28.3333H1.26831V7.39333H9.54831C11.3483 7.39333 12.6983 7.93333 13.5983 9.01333C14.5183 10.0733 14.9783 11.6033 14.9783 13.6033C14.9783 15.2233 14.6783 16.5333 14.0783 17.5333C13.4783 18.5333 12.5783 19.2033 11.3783 19.5433L15.3683 28.3333H11.8283L8.19831 19.7833H4.44831V28.3333ZM9.27831 17.1133C10.0383 17.1133 10.6083 16.9233 10.9883 16.5433C11.3883 16.1433 11.5883 15.5033 11.5883 14.6233V12.6733C11.5883 11.7933 11.3883 11.1633 10.9883 10.7833C10.6083 10.3833 10.0383 10.1833 9.27831 10.1833H4.44831V17.1133H9.27831ZM27.2722 25.7533H26.8822C26.2622 27.7133 24.9722 28.6933 23.0122 28.6933C21.6322 28.6933 20.5522 28.2233 19.7722 27.2833C19.0122 26.3233 18.6322 24.9233 18.6322 23.0833V12.7333H21.7222V22.6633C21.7222 24.9233 22.6022 26.0533 24.3622 26.0533C25.1622 26.0533 25.8422 25.8133 26.4022 25.3333C26.9822 24.8333 27.2722 24.1433 27.2722 23.2633V12.7333H30.3622V28.3333H27.2722V25.7533ZM34.5739 28.3333V12.7333H37.6639V15.3133H38.0239C38.6439 13.3533 39.9239 12.3733 41.8639 12.3733C43.2639 12.3733 44.3439 12.8533 45.1039 13.8133C45.8839 14.7533 46.2739 16.1433 46.2739 17.9833V28.3333H43.1839V18.4033C43.1839 17.3033 42.9739 16.4633 42.5539 15.8833C42.1339 15.3033 41.4739 15.0133 40.5739 15.0133C39.7539 15.0133 39.0639 15.2633 38.5039 15.7633C37.9439 16.2433 37.6639 16.9233 37.6639 17.8033V28.3333H34.5739ZM50.3357 6.13333H53.4257V15.2833H53.7857C54.0457 14.3633 54.5057 13.6533 55.1657 13.1533C55.8457 12.6333 56.6457 12.3733 57.5657 12.3733C59.4257 12.3733 60.8057 13.0833 61.7057 14.5033C62.6057 15.9033 63.0557 17.9133 63.0557 20.5333C63.0557 23.1533 62.6057 25.1733 61.7057 26.5933C60.8057 27.9933 59.4257 28.6933 57.5657 28.6933C56.6457 28.6933 55.8457 28.4433 55.1657 27.9433C54.5057 27.4233 54.0457 26.7033 53.7857 25.7833H53.4257V28.3333H50.3357V6.13333ZM56.4557 26.0533C57.5157 26.0533 58.3357 25.7233 58.9157 25.0633C59.4957 24.4033 59.7857 23.4733 59.7857 22.2733V18.7933C59.7857 17.5933 59.4957 16.6633 58.9157 16.0033C58.3357 15.3433 57.5157 15.0133 56.4557 15.0133C55.5757 15.0133 54.8457 15.2433 54.2657 15.7033C53.7057 16.1633 53.4257 16.7933 53.4257 17.5933V23.4733C53.4257 24.2733 53.7057 24.9033 54.2657 25.3633C54.8457 25.8233 55.5757 26.0533 56.4557 26.0533ZM67.9503 9.76333C66.7103 9.76333 66.0903 9.23333 66.0903 8.17333V7.63333C66.0903 6.57333 66.7103 6.04333 67.9503 6.04333C69.1903 6.04333 69.8103 6.57333 69.8103 7.63333V8.17333C69.8103 9.23333 69.1903 9.76333 67.9503 9.76333ZM66.4203 12.7333H69.5103V28.3333H66.4203V12.7333ZM76.7746 28.3333C75.6946 28.3333 74.9146 28.0933 74.4346 27.6133C73.9546 27.1133 73.7146 26.3433 73.7146 25.3033V6.13333H76.8046V25.7833H78.6646V28.3333H76.7746ZM87.1775 28.6933C86.1975 28.6933 85.2975 28.5333 84.4775 28.2133C83.6575 27.8933 82.9575 27.4033 82.3775 26.7433C81.7975 26.0633 81.3375 25.2133 80.9975 24.1933C80.6775 23.1733 80.5175 21.9533 80.5175 20.5333C80.5175 19.1133 80.6675 17.8933 80.9675 16.8733C81.2675 15.8333 81.6975 14.9833 82.2575 14.3233C82.8375 13.6633 83.5175 13.1733 84.2975 12.8533C85.0975 12.5333 85.9975 12.3733 86.9975 12.3733C88.9775 12.3733 90.5175 13.0233 91.6175 14.3233C92.7375 15.6233 93.2975 17.6933 93.2975 20.5333V21.3133H83.7575V22.3033C83.7575 23.5433 84.0675 24.4933 84.6875 25.1533C85.3275 25.8133 86.1975 26.1433 87.2975 26.1433C88.2375 26.1433 89.0075 25.9333 89.6075 25.5133C90.2275 25.0933 90.7475 24.5033 91.1675 23.7433L92.9675 25.4533C92.4075 26.4333 91.6475 27.2233 90.6875 27.8233C89.7475 28.4033 88.5775 28.6933 87.1775 28.6933ZM86.9975 14.8333C85.9575 14.8333 85.1575 15.1533 84.5975 15.7933C84.0375 16.4133 83.7575 17.3533 83.7575 18.6133V19.2433H90.0275V18.6133C90.0275 16.0933 89.0175 14.8333 86.9975 14.8333ZM100.377 28.3333C99.2968 28.3333 98.5068 28.0933 98.0068 27.6133C97.5268 27.1333 97.2868 26.3533 97.2868 25.2733V15.2833H95.1268V12.7333H96.3268C96.8268 12.7333 97.1568 12.6233 97.3168 12.4033C97.4968 12.1633 97.5868 11.7933 97.5868 11.2933V8.47333H100.377V12.7333H103.287V15.2833H100.377V25.7833H103.077V28.3333H100.377Z" fill="#00BCE6"/>
</svg>
