<svg width="36" height="36" viewBox="0 0 36 36" fill="none" xmlns="http://www.w3.org/2000/svg">
<g clip-path="url(#clip0_10_3043)" filter="url(#filter0_b_10_3043)">
<path d="M0 18C0 8.05888 8.05888 0 18 0C27.9411 0 36 8.05888 36 18C36 27.9411 27.9411 36 18 36C8.05888 36 0 27.9411 0 18Z" fill="#00BCE6" fill-opacity="0.1"/>
<path fill-rule="evenodd" clip-rule="evenodd" d="M25.192 14.5192C16.9058 12.2944 7.4265 9.74928 6.08654 9.42666C5.26901 9.27515 4.55798 9.71767 4.32247 10.5052C3.84567 12.2848 3.35385 14.0609 2.86199 15.8372C1.87913 19.3866 0.896078 22.9367 0.0322974 26.5168C0.00529633 26.6638 -0.00820421 26.8124 0.00529633 26.9624C0.0562984 27.5399 0.428313 28.0769 1.11234 28.2779C4.29578 29.1286 7.47296 30.0052 10.6502 30.8819C17.0532 32.6485 23.4564 34.4152 29.912 35.9702C30.062 35.9987 30.2075 36.0107 30.359 35.9957C30.941 35.9447 31.4766 35.5667 31.6761 34.8917C32.1502 33.1233 32.639 31.3585 33.1278 29.5938C34.1143 26.0325 35.1006 22.4714 35.9662 18.8815C35.9947 18.7315 36.0082 18.5845 35.9947 18.4345C35.9422 17.845 35.5582 17.3155 34.8877 17.119C32.4904 16.4788 28.9649 15.5322 25.192 14.5192ZM29.1635 32.6686L3.33843 25.7668C3.6402 24.6421 3.94196 23.5171 4.24376 22.3921C5.10761 19.1718 5.97168 15.9507 6.83657 12.7313C6.83657 12.7313 25.4823 17.7115 32.6601 19.6301L29.1635 32.6686ZM27.9484 29.541L27.5614 30.9855L23.4842 29.913L23.8727 28.4654L27.9484 29.541ZM21.4817 29.391L20.0326 28.9979L20.7001 26.5108L22.1477 26.9039L21.4817 29.391ZM28.9835 25.5583L28.5949 27.0059L24.5163 25.9303L24.9063 24.4828L28.9835 25.5583ZM22.5377 25.4533L21.0886 25.0603L21.8417 22.2492L23.2922 22.6407L22.5377 25.4533ZM29.651 22.9602L29.2625 24.4093L25.1853 23.3337L25.5723 21.8862L29.651 22.9602ZM30.3485 20.3096L29.96 21.7571L25.8828 20.6831L26.2713 19.234L30.3485 20.3096ZM23.6807 21.1916L22.2302 20.8001L22.8977 18.313L24.3468 18.7045L23.6807 21.1916ZM19.3262 5.82877C16.472 6.56656 13.6179 7.30437 10.7682 8.0571L16.8015 9.67117L29.279 6.33654L31.2035 13.5278L34.5877 14.4339C33.6876 10.9582 32.7846 7.48258 31.7676 4.03694C31.5471 3.40542 31.04 3.0424 30.3995 3.0004C30.263 2.9989 30.1655 2.9989 29.951 3.0514C26.4152 3.99621 22.8707 4.91248 19.3262 5.82877ZM13.9293 20.1284L12.7505 16.5006L11.5718 20.1284H7.75728L10.8433 22.3705L9.66453 25.9983L12.7505 23.7562L15.8365 25.9983L14.6578 22.3705L17.7438 20.1284H13.9293Z" fill="#53525E"/>
</g>
<defs>
<filter id="filter0_b_10_3043" x="-4" y="-4" width="44" height="44" filterUnits="userSpaceOnUse" color-interpolation-filters="sRGB">
<feFlood flood-opacity="0" result="BackgroundImageFix"/>
<feGaussianBlur in="BackgroundImage" stdDeviation="2"/>
<feComposite in2="SourceAlpha" operator="in" result="effect1_backgroundBlur_10_3043"/>
<feBlend mode="normal" in="SourceGraphic" in2="effect1_backgroundBlur_10_3043" result="shape"/>
</filter>
<clipPath id="clip0_10_3043">
<rect width="36" height="36" fill="white"/>
</clipPath>
</defs>
</svg>
