<svg width="37" height="36" viewBox="0 0 37 36" fill="none" xmlns="http://www.w3.org/2000/svg">
<g clip-path="url(#clip0_3_3024)" filter="url(#filter0_b_3_3024)">
<path d="M0 19.5C0 9.55888 8.05888 1.5 18 1.5C27.9411 1.5 36 9.55888 36 19.5C36 29.4411 27.9411 37.5 18 37.5C8.05888 37.5 0 29.4411 0 19.5Z" fill="#00BCE6" fill-opacity="0.1"/>
<path d="M28.9418 22.3682C28.6583 22.6498 28.4989 23.0329 28.4989 23.4325V30.4545C28.4989 31.5591 27.6034 32.4545 26.4989 32.4545H6.49987C5.3953 32.4545 4.49988 31.5591 4.49988 30.4545V16.7818C4.49988 15.6772 5.39531 14.7818 6.49988 14.7818H14.0071C14.3958 14.7818 14.7688 14.6281 15.0446 14.3542C15.9776 13.428 15.3217 11.8364 14.0071 11.8364H3.5C2.39543 11.8364 1.5 12.7318 1.5 13.8364V33.4C1.5 34.5046 2.39543 35.4 3.5 35.4H29.4988C30.6033 35.4 31.4988 34.5046 31.4988 33.4V23.4325C31.4988 22.0987 29.8882 21.4283 28.9418 22.3682ZM29.4513 8.42212C30.1482 7.73081 31.2712 7.72793 31.9717 8.41564C32.6852 9.11625 32.6882 10.265 31.9783 10.9693L19.7688 23.0827C19.494 23.3553 19.1461 23.5423 18.7671 23.621L17.5474 23.8745C16.8293 24.0237 16.2002 23.3748 16.3716 22.6617L16.6381 21.5535C16.7249 21.1924 16.9105 20.8626 17.1741 20.6011L29.4513 8.42212ZM32.1045 4.3821C31.3237 3.61579 30.0721 3.61906 29.2953 4.38945L14.445 19.1175C14.1809 19.3794 13.9951 19.7097 13.9084 20.0714L12.3669 26.5036C12.196 27.2165 12.825 27.8649 13.5428 27.7157L20.2655 26.319C20.6445 26.2403 20.9925 26.0533 21.2672 25.7807L36.061 11.1049C36.8526 10.3196 36.8492 9.03861 36.0534 8.25759L32.1045 4.3821Z" fill="#53525E"/>
</g>
<defs>
<filter id="filter0_b_3_3024" x="-4" y="-4" width="44.0015" height="44" filterUnits="userSpaceOnUse" color-interpolation-filters="sRGB">
<feFlood flood-opacity="0" result="BackgroundImageFix"/>
<feGaussianBlur in="BackgroundImage" stdDeviation="2"/>
<feComposite in2="SourceAlpha" operator="in" result="effect1_backgroundBlur_3_3024"/>
<feBlend mode="normal" in="SourceGraphic" in2="effect1_backgroundBlur_3_3024" result="shape"/>
</filter>
<clipPath id="clip0_3_3024">
<rect width="36.0015" height="36" fill="white"/>
</clipPath>
</defs>
</svg>
