<svg width="24" height="24" viewBox="0 0 24 24" fill="none" xmlns="http://www.w3.org/2000/svg">
    <g filter="url(#pqo4falwza)">
        <path d="M0 12C0 5.373 5.373 0 12 0s12 5.373 12 12-5.373 12-12 12S0 18.627 0 12z" fill="#00BCE6" fill-opacity=".1"/>
        <path d="M12 3c2.131 0 4 1.73 4 3.702 0 2.05-1.714 4.941-4 8.561-2.286-3.62-4-6.511-4-8.561C8 4.73 9.869 3 12 3zm0-2C8.852 1 6 3.553 6 6.702 6 9.85 8.602 13.609 12 19c3.398-5.391 6-9.15 6-12.298C18 3.553 15.149 1 12 1zm0 8a2 2 0 1 1-.001-3.999A2 2 0 0 1 12 9zm8 6h-3.135a118.64 118.64 0 0 1-1.232 2h3.131l.5 1H15l-.344.544-.289.456h.558l.858 2H8.295l.858-2h.479l-.289-.456L9 18H6.958l-1.011-1h2.42c-.435-.691-.848-1.359-1.232-2H4l-4 8h24l-4-8zM7.206 21h-3.97L5 17.472 6.516 19h1.549l-.859 2zm8.808-2h3.75l1 2h-3.892l-.858-2z" fill="#53525E"/>
    </g>
    <defs>
        <filter id="pqo4falwza" x="-4" y="-4" width="32" height="32" filterUnits="userSpaceOnUse" color-interpolation-filters="sRGB">
            <feFlood flood-opacity="0" result="BackgroundImageFix"/>
            <feGaussianBlur in="BackgroundImage" stdDeviation="2"/>
            <feComposite in2="SourceAlpha" operator="in" result="effect1_backgroundBlur_7_3793"/>
            <feBlend in="SourceGraphic" in2="effect1_backgroundBlur_7_3793" result="shape"/>
        </filter>
    </defs>
</svg>
