<svg width="24" height="24" viewBox="0 0 24 24" fill="none" xmlns="http://www.w3.org/2000/svg">
    <g filter="url(#tmyjd6mi7a)">
        <path d="M0 12C0 5.373 5.373 0 12 0s12 5.373 12 12-5.373 12-12 12S0 18.627 0 12z" fill="#00E6E6" fill-opacity=".1"/>
        <path d="M6 8V6a6 6 0 0 1 12 0v2h-2V6c0-2.206-1.795-4-4-4S8 3.794 8 6v2H6zm15 2v14H3V10h18zm-2 2H5v10h14V12z" fill="#53525E"/>
    </g>
    <defs>
        <filter id="tmyjd6mi7a" x="-4" y="-4" width="32" height="32" filterUnits="userSpaceOnUse" color-interpolation-filters="sRGB">
            <feFlood flood-opacity="0" result="BackgroundImageFix"/>
            <feGaussianBlur in="BackgroundImage" stdDeviation="2"/>
            <feComposite in2="SourceAlpha" operator="in" result="effect1_backgroundBlur_80_2719"/>
            <feBlend in="SourceGraphic" in2="effect1_backgroundBlur_80_2719" result="shape"/>
        </filter>
    </defs>
</svg>
