<svg width="24" height="25" viewBox="0 0 24 25" fill="none" xmlns="http://www.w3.org/2000/svg">
    <g filter="url(#10qz69oila)">
        <path d="M0 13C0 6.373 5.373 1 12 1s12 5.373 12 12-5.373 12-12 12S0 19.627 0 13z" fill="#00BCE6" fill-opacity=".1"/>
        <path d="M15.729 13.09a1 1 0 0 1 1 1v2.637h3.635v2.635a1 1 0 0 0 1 1l1.637.001a1 1 0 0 1 1 1V23a1 1 0 0 1-1 1h-1.637a1 1 0 0 1-1-1v-1.636a1 1 0 0 0-1-1H17.73a1 1 0 0 0-1 1V23a1 1 0 0 1-1 1h-1.637a1 1 0 0 1-1-1v-1.637a1 1 0 0 1 1-1h1.636a1 1 0 0 0 1-1v-2.636h-2.636a1 1 0 0 1-1-1v-1.636a1 1 0 0 1 1-1h1.637zm-7.548.001a2.727 2.727 0 0 1 2.728 2.728v5.454A2.727 2.727 0 0 1 8.18 24H2.727A2.727 2.727 0 0 1 0 21.273v-5.454a2.727 2.727 0 0 1 2.727-2.728h5.454zm0 2.182H2.727a.545.545 0 0 0-.545.546v5.454c0 .3.244.545.545.545h5.454a.545.545 0 0 0 .546-.545v-5.454a.545.545 0 0 0-.546-.546zm-.817 1.364v3.818H3.545v-3.818h3.819zM23 13.09a1 1 0 0 1 1 1v1.636a1 1 0 0 1-1 1h-2.637v-2.636a1 1 0 0 1 1-1h1.637zM8.18 0a2.727 2.727 0 0 1 2.728 2.727v5.454A2.727 2.727 0 0 1 8.18 10.91H2.727A2.727 2.727 0 0 1 0 8.18V2.727A2.727 2.727 0 0 1 2.727 0h5.454zm13.092 0A2.727 2.727 0 0 1 24 2.727v5.454a2.727 2.727 0 0 1-2.727 2.728h-5.454A2.727 2.727 0 0 1 13.09 8.18V2.727A2.727 2.727 0 0 1 15.82 0h5.454zM8.18 2.182H2.727a.545.545 0 0 0-.545.545v5.454c0 .302.244.546.545.546h5.454a.545.545 0 0 0 .546-.546V2.727a.545.545 0 0 0-.546-.545zm13.092 0h-5.454a.545.545 0 0 0-.546.545v5.454c0 .302.244.546.546.546h5.454a.545.545 0 0 0 .545-.546V2.727a.545.545 0 0 0-.545-.545zm-.818 1.363v3.819h-3.818V3.545h3.818zM7.36 3.548v3.813H3.548V3.548h3.813z" fill="#53525E"/>
    </g>
    <defs>
        <filter id="10qz69oila" x="-4" y="-4" width="32.001" height="33" filterUnits="userSpaceOnUse" color-interpolation-filters="sRGB">
            <feFlood flood-opacity="0" result="BackgroundImageFix"/>
            <feGaussianBlur in="BackgroundImage" stdDeviation="2"/>
            <feComposite in2="SourceAlpha" operator="in" result="effect1_backgroundBlur_46_2084"/>
            <feBlend in="SourceGraphic" in2="effect1_backgroundBlur_46_2084" result="shape"/>
        </filter>
    </defs>
</svg>
