<svg width="24" height="25" viewBox="0 0 24 25" fill="none" xmlns="http://www.w3.org/2000/svg">
    <g filter="url(#xo25fi7vpa)">
        <path d="M0 12C0 5.373 5.373 0 12 0s12 5.373 12 12-5.373 12-12 12S0 18.627 0 12z" fill="#00E6E6" fill-opacity=".1"/>
        <path fill-rule="evenodd" clip-rule="evenodd" d="M16.795 9.68C11.27 8.195 4.95 6.5 4.058 6.283a.998.998 0 0 0-1.176.72c-.318 1.186-.646 2.37-.974 3.554-.655 2.366-1.31 4.733-1.886 7.12a.993.993 0 0 0 .72 1.174c2.122.567 4.24 1.151 6.358 1.736 4.269 1.178 8.538 2.355 12.841 3.392.1.02.197.027.298.017a.995.995 0 0 0 .878-.736c.316-1.179.642-2.355.968-3.532.658-2.374 1.315-4.748 1.892-7.141a.994.994 0 0 0-.719-1.175c-1.598-.427-3.948-1.058-6.463-1.734zm2.647 12.1L2.226 17.177c.2-.75.402-1.5.603-2.249l1.729-6.441 17.215 4.599-2.33 8.692zm-.81-2.086-.258.963-2.718-.715.26-.965 2.716.717zm-4.31-.1-.967-.262.445-1.658.965.262-.444 1.658zm5-2.555-.259.965-2.719-.717.26-.965 2.718.717zm-4.297-.07-.966-.262.502-1.874.967.26-.503 1.876zm4.742-1.662-.259.966-2.718-.717.258-.965 2.72.716zm.465-1.767-.259.965-2.718-.716.26-.966 2.717.717zm-4.445.588-.967-.261.445-1.658.966.26-.444 1.659zM12.884 3.886c-1.903.492-3.805.984-5.705 1.485L11.2 6.447l8.318-2.223 1.283 4.795 2.256.604c-.6-2.318-1.202-4.635-1.88-6.932a.995.995 0 0 0-1.21-.657c-2.358.63-4.72 1.241-7.084 1.852zm-3.598 9.533L8.5 11l-.785 2.419H5.172l2.057 1.495-.786 2.418L8.5 15.837l2.058 1.495-.786-2.418 2.057-1.495H9.286z" fill="#fff"/>
    </g>
    <defs>
        <filter id="xo25fi7vpa" x="-4" y="-4" width="32" height="32.002" filterUnits="userSpaceOnUse" color-interpolation-filters="sRGB">
            <feFlood flood-opacity="0" result="BackgroundImageFix"/>
            <feGaussianBlur in="BackgroundImage" stdDeviation="2"/>
            <feComposite in2="SourceAlpha" operator="in" result="effect1_backgroundBlur_4_7602"/>
            <feBlend in="SourceGraphic" in2="effect1_backgroundBlur_4_7602" result="shape"/>
        </filter>
    </defs>
</svg>
