<svg width="24" height="24" viewBox="0 0 24 24" fill="none" xmlns="http://www.w3.org/2000/svg">
    <g filter="url(#o6c79cfona)">
        <path d="M0 12C0 5.373 5.373 0 12 0s12 5.373 12 12-5.373 12-12 12S0 18.627 0 12z" fill="#00BCE6" fill-opacity=".1"/>
        <path fill-rule="evenodd" clip-rule="evenodd" d="M22 12c0-5.514-4.486-10-10-10S2 6.486 2 12s4.486 10 10 10 10-4.486 10-10zM0 12C0 5.373 5.373 0 12 0s12 5.373 12 12-5.373 12-12 12S0 18.627 0 12zm14.69 4.187c.255.255.595.396.957.396.361 0 .7-.14.957-.396.256-.256.396-.596.396-.957s-.14-.7-.39-.952l-4.495-4.732c-.516-.519.692-.767 1.383-.836l.142-.788c-.044-.022-1.04-.505-2.17-.505-.711 0-1.324.19-1.82.563-.586.441-.77.875-.905 1.19v.002l-.001.002c-.068.159-.116.273-.197.354-.04.04-.067.043-.09.043a.304.304 0 0 1-.127-.036l-.284-.19L7 10.39l2.216 2.217.804-.804.253-.272 4.417 4.656zm.594-.583-3.529-3.757.735-.736 3.524 3.751a.518.518 0 0 1 0 .736.538.538 0 0 1-.73.006zm-6.068-4.175L8.178 10.39l.02-.02c.077.02.165.034.26.034.255 0 .49-.099.677-.287.196-.196.287-.41.375-.62h.001c.12-.28.232-.545.64-.852.348-.262.792-.395 1.319-.395.135 0 .269.008.399.023-.356.182-.59.42-.692.707-.08.221-.14.666.349 1.155l.381.38-.736.737-.372-.372c-.29-.291-.564-.433-.835-.433a.724.724 0 0 0-.52.22.766.766 0 0 0-.219.753l-.009.01zm5.999-2.67-1.39 1.373-.44-.463 1.487-1.47a1.241 1.241 0 0 1 1.761 0 1.25 1.25 0 0 1 .002 1.764l-1.533 1.516-.42-.444 1.413-1.396a.18.18 0 0 0-.255-.254l-1.406 1.39-.361-.38 1.397-1.381a.18.18 0 0 0-.255-.255zm-6.123 6.225 1.72-1.664.573.604-1.704 1.65a1.364 1.364 0 0 0-.24.322l-.125.241-.875.446-.347-.347.427-.894.241-.126c.12-.063.234-.137.33-.232z" fill="#53525E"/>
    </g>
    <defs>
        <filter id="o6c79cfona" x="-4" y="-4" width="32" height="32" filterUnits="userSpaceOnUse" color-interpolation-filters="sRGB">
            <feFlood flood-opacity="0" result="BackgroundImageFix"/>
            <feGaussianBlur in="BackgroundImage" stdDeviation="2"/>
            <feComposite in2="SourceAlpha" operator="in" result="effect1_backgroundBlur_7_3764"/>
            <feBlend in="SourceGraphic" in2="effect1_backgroundBlur_7_3764" result="shape"/>
        </filter>
    </defs>
</svg>
